<svg version="1.1" xmlns="http://www.w3.org/2000/svg" xmlns:xlink="http://www.w3.org/1999/xlink" x="0px" y="0px" viewBox="0 0 1068.2 717.2" style="enable-background:new 0 0 1068.2 717.2;" xml:space="preserve">
<style type="text/css">
	.st0{fill:none;stroke:#00539c;stroke-width:42.6185;stroke-linecap:round;stroke-linejoin:round;stroke-miterlimit:5;}
    .st1{clip-path:url(#SVGID_2_);}
    .st2{fill:none;stroke:#00539c;stroke-width:41;stroke-linecap:round;stroke-linejoin:round;stroke-miterlimit:5;}
	.st3{fill:black;}
	.st4{fill:#00539c;}

	svg {

		max-width: 600px;
		margin: 0 auto;
		background: rgba(0,0,0,.97);
	}

	@keyframes offset {

		100% {

			stroke-dashoffset: 0;
		}
	}

	.sub_one ellipse:nth-of-type(1) {

		stroke-dasharray: 1300;
		stroke-dashoffset: 1300;
		animation: offset 1.2s .5s ease forwards;
	}

	.sub_one ellipse:nth-of-type(2) {

		stroke-dasharray: 1300;
		stroke-dashoffset: 1300;
		animation: offset 1.2s .6s ease forwards;
	}

	.sub_one ellipse:nth-of-type(3) {

		stroke-dasharray: 1300;
		stroke-dashoffset: 1300;
		animation: offset 1.2s .7s ease forwards;
	}

	.sub_two polyline:nth-of-type(1) {
		
		stroke-dasharray: 700;
		stroke-dashoffset: 700;
		animation: offset 1.5s ease forwards;
	}

	.sub_two polyline:nth-of-type(2) {
		
		stroke-dasharray: 700;
		stroke-dashoffset: 700;
		animation: offset 1.5s .1s ease forwards;
	}

	@keyframes move_right {

		100% {

            opacity: 1;
			transform: translateX(0px);
		}
	}

	.sub_three {

        opacity: 0;
		transform: translateX(-70px);
		animation: move_right .75s 1.5s ease forwards;
	}

	@keyframes zoom_out {

		100% {

			transform: scale(1) rotate(0deg);
		}
	}

	@keyframes rotate {

		0% {

			transform: scale(1) rotate(0deg);
		}

		100% {

			transform: scale(1) rotate(90deg);
		}
	}

	@keyframes rotate_two {

		0% {

			transform: scale(1) rotate(90deg);
		}

		100% {

			transform: scale(1) rotate(0deg);
		}
	}

	.feat {

		transform-origin: 530.9px 293.2px;
		transform: scale(1.75) rotate(0deg);
		animation: zoom_out .75s 2s ease forwards, rotate .5s 3.5s ease forwards, rotate_two .5s 4.8s ease forwards;
	}

	@keyframes fade_in {

		100% {

			opacity: 1;
		}
	}

	.sub_four path:nth-of-type(1) {

        opacity: 0;
        animation: fade_in 1.2s 2.5s linear forwards;
	}

	.sub_four path:nth-of-type(2) {

        opacity: 0;
        animation: fade_in 1.2s 2.6s linear forwards;
	}

	.sub_four path:nth-of-type(3) {

        opacity: 0;
        animation: fade_in 1.2s 2.7s linear forwards;
	}

	.sub_four path:nth-of-type(4) {

        opacity: 0;
        animation: fade_in 1.2s 2.8s linear forwards;
	}

	.sub_five path:nth-of-type(1) {

        opacity: 0;
        animation: fade_in 1.2s 4s linear forwards;
	}

	.sub_five path:nth-of-type(2) {

        opacity: 0;
        animation: fade_in 1.2s 4.05s linear forwards;
	}

	.sub_five path:nth-of-type(3) {

        opacity: 0;
        animation: fade_in 1.2s 4.1s linear forwards;
	}

	.sub_five path:nth-of-type(4) {

        opacity: 0;
        animation: fade_in 1.2s 4.15s linear forwards;
	}

	.sub_five path:nth-of-type(5) {

        opacity: 0;
        animation: fade_in 1.2s 4.2s linear forwards;
	}

	.sub_five path:nth-of-type(6) {

        opacity: 0;
        animation: fade_in 1.2s 4.25s linear forwards;
	}

	.sub_five path:nth-of-type(7) {

        opacity: 0;
        animation: fade_in 1.2s 4.3s linear forwards;
	}

    @keyframes pulsating_effect {

        50% {

           opacity: 0.4;
        }

        100% {

           opacity: 0;
           transform: scale(1.15);
        }
    }

    .bg {

        opacity: 0;
        transform-origin: 530.9px 293.2px;
        animation: pulsating_effect 2s 5s linear forwards;
    }

    @keyframes zoom_in {

    	100% {

    		transform: scale(1);
    	}
    }

    .main {

    	transform-origin: 534.1px 358.6px;
    	transform: scale(.8);
    	animation: zoom_in 5s linear forwards;
    }
</style>
<g class="main">
<g class="feat">
<ellipse class="st0 bg" cx="530.9" cy="293.2" rx="207.3" ry="206.1"/>
<g class="sub_one">
    <ellipse class="st0" opacity=".33" cx="530.9" cy="293.2" rx="207.3" ry="206.1"/>
    <ellipse class="st0" opacity=".66" cx="530.9" cy="293.2" rx="207.3" ry="206.1"/>
    <ellipse class="st0" cx="530.9" cy="293.2" rx="207.3" ry="206.1"/>
</g>
<g class="sub_three">
	<path class="st3" d="M591.9,277.6c9.5,0,17.2,7.7,17.2,17.2c0,9.5-7.7,17.2-17.2,17.2s-17.2-7.7-17.2-17.2   C574.7,285.3,582.4,277.6,591.9,277.6"/>
</g>
<g>
    <g>
        <defs>
            <path id="SVGID_1_" d="M591.9,214.6h-93.2c-10.3,0-18.7-8.4-18.7-18.7c0-10.3,8.4-18.7,18.7-18.7h93.2c10.3,0,18.7,8.4,18.7,18.7    C610.5,206.3,602.2,214.6,591.9,214.6M541.1,313.5h-53.7c-37.5,0-68.1-30.5-68.1-68.1c0-13.3,3.8-26.1,11-37.2c5.6-8.6,17.2-11.1,25.8-5.4    c8.6,5.6,11.1,17.2,5.4,25.8c-3.3,5-5,10.8-5,16.8c0,17,13.8,30.8,30.8,30.8h53.7c10.3,0,18.7,8.4,18.7,18.7    C559.8,305.1,551.4,313.5,541.1,313.5M591.9,412.3H487.4c-37.5,0-68.1-30.5-68.1-68.1s30.5-68.1,68.1-68.1h53.7c10.3,0,18.7,8.4,18.7,18.7    c0,10.3-8.4,18.7-18.7,18.7h-53.7c-17,0-30.8,13.8-30.8,30.8s13.8,30.8,30.8,30.8h104.4c10.3,0,18.7,8.4,18.7,18.7    C610.5,404,602.2,412.3,591.9,412.3"/>
        </defs>
        <clipPath id="SVGID_2_">
            <use xlink:href="#SVGID_1_"  style="overflow:visible;"/>
        </clipPath>
    </g>
    <g class="st1 sub_two">
    	<polyline class="st2" opacity=".5" points="623,392 553,394 497,394 469.4,390.6 451,376.5 441,359 439,339 442,321.5 452.6,311.4 543.8,297.8 
	    533.5,292.3 510.8,290 481.8,291.5 465.8,288 456.8,286 445.8,272 441.5,263 438.3,252 438,239.3 442.5,225.5 447.3,214.5 
	    453.8,205.5 456.2,202.8 465.3,195.3 624,195.3 "/>
	    <polyline class="st2" points="623,392 553,394 497,394 469.4,390.6 451,376.5 441,359 439,339 442,321.5 452.6,311.4 543.8,297.8 
	    533.5,292.3 510.8,290 481.8,291.5 465.8,288 456.8,286 445.8,272 441.5,263 438.3,252 438,239.3 442.5,225.5 447.3,214.5 
	    453.8,205.5 456.2,202.8 465.3,195.3 624,195.3 "/>
    </g>
</g>
</g>
<g class="sub_four">
	<path class="st4" d="M27.1,715.5c-15,0-27.1-12.2-27.1-27.1c0-6.2,2.1-12.1,6-16.9c-3.9-4.8-6-10.8-6-16.9   c0-15,12.2-27.1,27.1-27.1h35.6c5.7,0,10.3,4.6,10.3,10.3c0,5.7-4.6,10.3-10.3,10.3H27.1c-3.6,0-6.5,2.9-6.5,6.5s2.9,6.5,6.5,6.5   h20.6c5.7,0,10.3,4.6,10.3,10.3v0.3c0,5.7-4.6,10.3-10.3,10.3H27.1c-3.6,0-6.5,2.9-6.5,6.5s2.9,6.5,6.5,6.5h35.6   c5.7,0,10.3,4.6,10.3,10.3s-4.6,10.3-10.3,10.3"/>
	<path class="st4" d="M125.5,693.7c14.7,0,24.4-8.1,24.4-22.4v-0.3c0-14.1-9.7-22.4-24.4-22.4h-10v45H125.5z M91,633.5   c0-3.6,2.9-6.5,6.5-6.5h27.6c31.6,0,49.9,18.2,49.9,43.7v0.3c0,25.5-18.6,44.5-50.4,44.5H97.5c-3.6,0-6.5-2.9-6.5-6.5"/>
	<path class="st4" d="M194,676.7v-37.2c0-6.9,5.6-12.4,12.4-12.4s12.4,5.6,12.4,12.4v36.7c0,12.8,6.4,18.8,16.3,18.8     c9.9,0,16.3-5.8,16.3-18.2v-37.3c0-6.9,5.6-12.4,12.4-12.4s12.4,5.6,12.4,12.4v36.6c0,28.5-16.3,41-41.4,41     C209.8,717.1,194,704.3,194,676.7"/>
	<path class="st3" d="M330.5,648.4c11.5,0,20.8,9.3,20.8,20.8c0,11.5-9.3,20.8-20.8,20.8c-11.5,0-20.8-9.3-20.8-20.8   C309.7,657.7,319,648.4,330.5,648.4"/>
</g>
<g class="sub_five">
	<path class="st4" d="M402.8,627.1c5.8,0,11.1,3,14.1,7.9l16.2,26.3l16.2-26.3c3-4.9,8.4-7.9,14.1-7.9c9.2,0,16.6,7.4,16.6,16.6   v59.8c0,6.6-5.4,12-12,12h-0.4c-6.6,0-12-5.4-12-12v-35.6c0-0.9-1.2-1.3-1.7-0.5l-15.8,23.9c-2.5,3.8-8.2,3.8-10.7,0l-15.6-23.6   c-0.5-0.8-1.7-0.4-1.7,0.5v35.4c0,6.6-5.4,12-12,12c-6.6,0-12-5.4-12-12v-59.8C386.2,634.5,393.6,627.1,402.8,627.1"/>
	<path class="st4" d="M570.5,671.5v-0.3c0-12.8-9.2-23.9-22.7-23.9c-13.4,0-22.4,10.9-22.4,23.6v0.3c0,12.8,9.2,23.9,22.6,23.9     C561.6,695.1,570.5,684.3,570.5,671.5 M500.3,671.5v-0.3c0-25.4,20.5-46,47.7-46c27.3,0,47.5,20.3,47.5,45.7v0.3     c0,25.4-20.5,46-47.7,46C520.5,717.2,500.3,696.9,500.3,671.5"/>
	<path class="st4" d="M656.5,669.5c8.3,0,13.1-4,13.1-10.5v-0.3c0-6.9-5.1-10.5-13.3-10.5h-13.8c-1.2,0-2.3,1-2.3,2.3v16.7   c0,1.2,1,2.3,2.3,2.3H656.5z M615.8,633.5c0-3.6,2.9-6.5,6.5-6.5h35.3c13.5,0,22.9,3.5,28.8,9.6c5.2,5.1,7.8,11.9,7.8,20.6v0.3   c0,13.5-7.2,22.5-18.2,27.2l8.6,12.6c5.3,7.7-0.2,18.2-9.6,18.2c-3.9,0-7.5-1.9-9.7-5.2l-14.4-21.6h-10.7v15.1   c0,6.4-5.2,11.6-11.6,11.6h-1.2c-6.4,0-11.6-5.2-11.6-11.6"/>
	<path class="st4" d="M764,678.9l-8-20.4c-0.4-1.1-1.9-1.1-2.4,0l-8.1,20.4c-0.3,0.8,0.3,1.7,1.2,1.7l16.1,0   C763.7,680.6,764.3,679.7,764,678.9 M755.1,626.4c7.2,0,13.6,4.3,16.4,10.9l26,61.8c3.3,7.8-2.4,16.4-10.9,16.4h-0.6   c-4.8,0-9.1-2.9-10.9-7.3l-3.4-8.5l-34.1,0l-3.4,8.4c-1.8,4.5-6.1,7.4-11,7.4c-8.4,0-14.1-8.6-10.8-16.4l26.2-61.8   C741.5,630.7,747.9,626.4,755.1,626.4"/>
	<path class="st4" d="M831.3,627.1h3c5.9,0,10.7,4.8,10.7,10.7V694h32.1c5.9,0,10.7,4.8,10.7,10.7c0,5.9-4.8,10.7-10.7,10.7h-50.1   c-3.6,0-6.5-2.9-6.5-6.5v-71.2C820.6,631.9,825.4,627.1,831.3,627.1"/>
	<path class="st4" d="M912.4,627.1h55c5.3,0,9.7,4.3,9.7,9.7v1.5c0,5.3-4.3,9.7-9.7,9.7h-37.2v13.4H963c5.3,0,9.7,4.3,9.7,9.7   c0,5.3-4.3,9.7-9.7,9.7h-32.8v14H968c5.3,0,9.7,4.3,9.7,9.7v1.5c0,5.3-4.3,9.7-9.7,9.7h-55.6c-3.6,0-6.5-2.9-6.5-6.5v-75.4   C905.9,630,908.8,627.1,912.4,627.1"/>
	<path class="st4" d="M998.5,693.4c3.2-3.9,8.8-5.1,13.2-2.6c6.8,3.9,14.1,5.9,21.7,5.9c6.6,0,10.1-2.3,10.1-6.1v-0.3     c0-3.7-2.9-5.7-14.9-8.5c-18.8-4.3-33.3-9.6-33.3-27.8v-0.3c0-16.4,13-28.3,34.2-28.3c10,0,18.6,1.8,26,5.3     c5.9,2.8,7.6,10.4,3.8,15.7l-0.1,0.1c-2.9,4.2-8.5,5.8-13.1,3.6c-5.9-2.8-11.8-4.3-17.3-4.3c-5.9,0-8.8,2.5-8.8,5.7v0.3     c0,4,3,5.8,15.3,8.6c20.3,4.4,33,11,33,27.5v0.3c0,18.1-14.3,28.8-35.7,28.8c-11.1,0-21.9-2.5-31.1-7.4     C995.5,706.4,994.2,698.5,998.5,693.4"/>
</g>
</g>
</svg>